<svg version="1.1" xmlns="http://www.w3.org/2000/svg" viewBox="0 0 576.3017578125 391.7783187389374" width="1152.603515625" height="783.5566374778748">
  <!-- svg-source:excalidraw -->
  
  <rect x="0" y="0" width="576.3017578125" height="391.7783187389374" fill="#ffffff"></rect><g stroke-linecap="round"><g transform="translate(96.73046875 381.41974134594204) rotate(0 0.8315228953957785 -185.53058197647334)"><path d="M-0.3 0.36 C0.2 -61.51, 1.76 -309.47, 1.96 -371.42 M1.74 -0.5 C2.19 -62.18, 0.8 -308.47, 1.06 -370.09" stroke="#1e1e1e" stroke-width="1" fill="none"></path></g><g transform="translate(96.73046875 381.41974134594204) rotate(0 0.8315228953957785 -185.53058197647334)"><path d="M11.96 -341.77 C8.56 -349.47, 6.48 -353.57, 0.2 -369.43 M11.79 -342.05 C8.46 -346.87, 7.62 -354.24, 0.47 -369.16" stroke="#1e1e1e" stroke-width="1" fill="none"></path></g><g transform="translate(96.73046875 381.41974134594204) rotate(0 0.8315228953957785 -185.53058197647334)"><path d="M-8.57 -341.74 C-7.62 -349.4, -5.35 -353.51, 0.2 -369.43 M-8.73 -342.03 C-7.88 -346.86, -4.56 -354.23, 0.47 -369.16" stroke="#1e1e1e" stroke-width="1" fill="none"></path></g></g><mask></mask><g stroke-linecap="round"><g transform="translate(56.410664604604335 342.04016707241544) rotate(0 245.83883428722618 -3.2431075906613387)"><path d="M-0.34 0.44 C81.53 -0.4, 410.31 -4.28, 492.02 -5.29 M1.68 -0.37 C83.43 -1.52, 409.9 -5.71, 491.68 -6.93" stroke="#1e1e1e" stroke-width="1" fill="none"></path></g><g transform="translate(56.410664604604335 342.04016707241544) rotate(0 245.83883428722618 -3.2431075906613387)"><path d="M464.37 5.64 C475.39 -1.59, 484.99 -5.15, 492.03 -5.17 M464.07 4.58 C469.56 0.85, 474.8 -1.16, 491.99 -6.58" stroke="#1e1e1e" stroke-width="1" fill="none"></path></g><g transform="translate(56.410664604604335 342.04016707241544) rotate(0 245.83883428722618 -3.2431075906613387)"><path d="M464.08 -14.88 C475.17 -14.66, 484.87 -10.77, 492.03 -5.17 M463.79 -15.94 C469.42 -15.36, 474.71 -13.05, 491.99 -6.58" stroke="#1e1e1e" stroke-width="1" fill="none"></path></g></g><mask></mask><g transform="translate(372.296875 352.53418883724714) rotate(0 77.6953125 10.610065204173509)"><text x="0" y="0" font-family="Arial, Segoe UI Emoji" font-size="17.683442006955865px" fill="#1e1e1e" text-anchor="start" style="white-space: pre;" direction="ltr" dominant-baseline="text-before-edge">HTML / CSS Code</text></g><g transform="translate(10 60.49717614176859) rotate(0 36.2578125 10.610065204173509)"><text x="0" y="0" font-family="Arial, Segoe UI Emoji" font-size="17.683442006955865px" fill="#1e1e1e" text-anchor="start" style="white-space: pre;" direction="ltr" dominant-baseline="text-before-edge">JS Code</text></g><g stroke-linecap="round" transform="translate(460.75390625 302.96661634594204) rotate(0 2.751953125 2.806640625)"><path d="M4.62 0.44 C4.88 0.7, 4.15 1.29, 4.25 1.92 C4.35 2.54, 5.23 3.59, 5.2 4.19 C5.18 4.78, 4.45 5.11, 4.1 5.48 C3.75 5.85, 3.74 6.37, 3.12 6.39 C2.51 6.4, 0.89 6.09, 0.42 5.57 C-0.05 5.06, 0.45 4.12, 0.32 3.28 C0.18 2.44, -0.67 1.06, -0.41 0.52 C-0.15 -0.01, 1.02 0.22, 1.89 0.08 C2.75 -0.07, 4.37 -0.54, 4.79 -0.35 C5.2 -0.17, 4.51 1.17, 4.38 1.19 M4.71 0.17 C5.35 0.21, 4.96 1.32, 4.91 1.76 C4.86 2.19, 4.45 2.35, 4.4 2.78 C4.35 3.21, 5.07 4.09, 4.61 4.33 C4.15 4.56, 2.39 4.22, 1.67 4.18 C0.95 4.14, 0.5 4.48, 0.31 4.1 C0.12 3.73, 0.71 2.39, 0.53 1.94 C0.36 1.5, -0.85 1.63, -0.74 1.44 C-0.62 1.25, 0.59 1.17, 1.22 0.8 C1.85 0.44, 2.72 -0.53, 3.03 -0.75 C3.33 -0.97, 2.99 -0.56, 3.08 -0.51" stroke="none" stroke-width="0" fill="#1e1e1e"></path><path d="M1.64 -0.57 C2.24 -0.48, 3.56 0.55, 4.14 0.95 C4.73 1.36, 4.98 1.51, 5.14 1.85 C5.29 2.2, 5.18 2.52, 5.06 3.02 C4.94 3.52, 4.86 4.52, 4.39 4.85 C3.93 5.18, 2.87 5.13, 2.3 5.01 C1.73 4.9, 1.37 4.44, 0.96 4.18 C0.55 3.91, 0.01 3.88, -0.17 3.44 C-0.35 2.99, -0.52 2.14, -0.13 1.51 C0.26 0.88, 1.73 -0.17, 2.17 -0.34 C2.61 -0.5, 2.42 0.3, 2.5 0.51 M0.43 -0.86 C0.74 -0.87, 2.74 -0.27, 3.47 0.14 C4.21 0.55, 4.54 0.97, 4.86 1.59 C5.19 2.21, 5.26 3.4, 5.44 3.85 C5.62 4.3, 6.32 4.16, 5.92 4.3 C5.53 4.44, 3.97 4.34, 3.07 4.7 C2.17 5.05, 1.29 6.78, 0.54 6.46 C-0.21 6.14, -1.62 3.79, -1.43 2.8 C-1.25 1.81, 1.01 1.05, 1.63 0.5 C2.26 -0.05, 2.17 -0.34, 2.32 -0.5 C2.48 -0.67, 2.78 -0.45, 2.57 -0.47" stroke="#1e1e1e" stroke-width="1" fill="none"></path></g><g stroke-linecap="round" transform="translate(462.615234375 254.35528822094204) rotate(0 2.751953125 2.806640625)"><path d="M3.55 0.24 C4.27 0.23, 4.69 0.61, 5.03 0.94 C5.36 1.27, 5.75 1.51, 5.56 2.2 C5.36 2.89, 4.39 4.54, 3.84 5.07 C3.3 5.6, 2.57 5.43, 2.29 5.36 C2.02 5.29, 2.45 5.03, 2.2 4.66 C1.94 4.28, 1.12 3.56, 0.76 3.13 C0.41 2.7, -0.17 2.56, 0.08 2.08 C0.32 1.59, 1.72 0.56, 2.22 0.21 C2.72 -0.15, 2.92 -0.09, 3.09 -0.04 C3.25 0.02, 3.08 0.43, 3.2 0.54 M3.4 -0.08 C3.45 -0.12, 3.18 0.26, 3.64 0.84 C4.11 1.42, 5.95 2.62, 6.2 3.43 C6.45 4.23, 5.77 5.21, 5.14 5.67 C4.51 6.12, 3.35 6.51, 2.43 6.15 C1.51 5.79, -0.21 3.77, -0.38 3.51 C-0.54 3.25, 1.16 4.77, 1.44 4.59 C1.72 4.4, 1.03 3.37, 1.3 2.41 C1.58 1.45, 2.62 -0.8, 3.09 -1.15 C3.56 -1.51, 3.98 0.05, 4.12 0.27 C4.26 0.49, 4.26 0.34, 3.93 0.18" stroke="none" stroke-width="0" fill="#1e1e1e"></path><path d="M3.87 -0.69 C4.64 -0.61, 5.84 -0.09, 5.94 0.73 C6.05 1.56, 4.77 3.68, 4.5 4.25 C4.23 4.83, 4.51 3.87, 4.32 4.19 C4.13 4.52, 3.76 6.19, 3.36 6.21 C2.96 6.22, 2.54 4.74, 1.92 4.29 C1.3 3.84, -0.13 4.14, -0.38 3.51 C-0.64 2.89, 0.05 1.15, 0.39 0.54 C0.74 -0.07, 1 -0.11, 1.68 -0.15 C2.36 -0.18, 3.83 0.06, 4.48 0.34 C5.12 0.62, 5.65 1.42, 5.56 1.53 M5.23 0.22 C5.96 0.19, 6.08 0.7, 6.15 1.11 C6.22 1.51, 6.08 2.13, 5.64 2.66 C5.21 3.19, 4.11 3.85, 3.55 4.29 C2.99 4.72, 2.62 5.29, 2.31 5.28 C2 5.28, 2.18 4.42, 1.69 4.25 C1.19 4.09, -0.44 5.02, -0.66 4.29 C-0.89 3.55, -0.26 0.65, 0.34 -0.15 C0.94 -0.94, 2.56 -0.61, 2.94 -0.5 C3.32 -0.4, 2.46 0.17, 2.63 0.47 C2.81 0.78, 3.88 1.18, 3.99 1.32" stroke="#1e1e1e" stroke-width="1" fill="none"></path></g><g stroke-linecap="round" transform="translate(429.548828125 233.88653822094204) rotate(0 2.751953125 2.806640625)"><path d="M3.3 -0.07 C4.15 -0.11, 5.01 0.33, 5.34 0.71 C5.67 1.08, 5.35 1.57, 5.27 2.18 C5.2 2.8, 5.05 3.87, 4.87 4.4 C4.7 4.93, 4.53 5.09, 4.21 5.38 C3.89 5.67, 3.74 6.44, 2.96 6.14 C2.18 5.84, 0.02 4.07, -0.48 3.59 C-0.98 3.11, -0.29 3.59, -0.04 3.25 C0.21 2.91, 0.41 2.07, 1.03 1.55 C1.65 1.03, 3.48 0.45, 3.67 0.12 C3.86 -0.22, 2.4 -0.49, 2.18 -0.48 M0.07 -0.14 C0.59 -0.89, 2.55 -1.72, 3.34 -1.36 C4.14 -0.99, 4.54 1.4, 4.86 2.05 C5.18 2.7, 5.07 1.94, 5.27 2.52 C5.46 3.11, 6.16 5.12, 6.03 5.58 C5.9 6.04, 5.39 5.43, 4.5 5.26 C3.62 5.09, 1.31 4.99, 0.71 4.58 C0.11 4.17, 1 3.5, 0.89 2.8 C0.79 2.1, 0.11 0.72, 0.08 0.37 C0.05 0.02, 0.27 0.74, 0.74 0.67 C1.21 0.6, 2.65 0.22, 2.92 -0.04" stroke="none" stroke-width="0" fill="#1e1e1e"></path><path d="M4.05 -0.05 C4.51 -0.12, 5.31 0.42, 5.57 0.91 C5.83 1.39, 5.73 2.26, 5.62 2.86 C5.51 3.46, 5.52 4.1, 4.89 4.51 C4.27 4.93, 2.69 5.34, 1.86 5.36 C1.03 5.39, 0.16 5.2, -0.11 4.66 C-0.38 4.11, 0.05 2.83, 0.23 2.1 C0.42 1.38, 0.64 0.49, 1.01 0.3 C1.38 0.12, 1.85 0.81, 2.45 0.99 C3.06 1.17, 4.19 1.41, 4.65 1.39 C5.11 1.36, 5.25 0.85, 5.21 0.83 M2 0.04 C2.68 -0.23, 4.31 0.06, 4.97 0.36 C5.63 0.67, 5.98 1.12, 5.96 1.88 C5.95 2.64, 5.33 4.49, 4.9 4.91 C4.47 5.33, 3.78 4.48, 3.4 4.38 C3.02 4.27, 3.04 4.17, 2.61 4.28 C2.19 4.39, 1.27 5.33, 0.85 5.02 C0.43 4.71, 0.13 3.01, 0.1 2.44 C0.06 1.86, 0.33 1.93, 0.65 1.59 C0.97 1.25, 1.74 0.71, 2.01 0.4 C2.28 0.08, 2.18 -0.31, 2.27 -0.32" stroke="#1e1e1e" stroke-width="1" fill="none"></path></g><g stroke-linecap="round" transform="translate(305.861328125 62.02716322094204) rotate(0 2.751953125 2.806640625)"><path d="M1.83 0.87 C2.65 0.67, 4.5 -0.34, 5.06 -0.03 C5.62 0.29, 5.27 2.1, 5.18 2.76 C5.1 3.42, 4.88 3.37, 4.54 3.91 C4.21 4.45, 3.69 5.76, 3.16 5.98 C2.63 6.2, 1.86 5.35, 1.34 5.23 C0.83 5.11, 0.43 5.71, 0.05 5.26 C-0.32 4.8, -1.13 3.15, -0.89 2.5 C-0.66 1.84, 0.98 1.91, 1.46 1.34 C1.95 0.77, 1.66 -0.81, 2.02 -0.91 C2.37 -1.01, 3.52 0.6, 3.59 0.75 M1.62 0.82 C2.05 0.66, 3.12 -0.6, 3.69 -0.26 C4.26 0.08, 4.84 1.94, 5.04 2.85 C5.24 3.75, 5.23 4.9, 4.88 5.18 C4.53 5.46, 3.51 4.43, 2.94 4.53 C2.36 4.63, 1.8 5.85, 1.44 5.78 C1.08 5.7, 0.82 4.92, 0.79 4.08 C0.76 3.23, 1.1 1.26, 1.26 0.7 C1.42 0.14, 1.65 0.58, 1.74 0.7 C1.84 0.83, 1.71 1.34, 1.81 1.44 C1.9 1.55, 2.31 1.68, 2.32 1.35" stroke="none" stroke-width="0" fill="#1e1e1e"></path><path d="M2.31 -0.85 C2.87 -0.86, 4.01 0.22, 4.59 0.67 C5.17 1.12, 5.69 1.09, 5.8 1.86 C5.91 2.62, 5.47 4.74, 5.24 5.25 C5.01 5.75, 5.03 4.74, 4.41 4.88 C3.8 5.02, 2.3 6.39, 1.55 6.1 C0.8 5.81, 0.17 3.74, -0.08 3.15 C-0.34 2.56, -0.32 3.06, 0.01 2.57 C0.35 2.09, 1.25 0.61, 1.92 0.24 C2.59 -0.12, 3.74 0.46, 4.03 0.39 C4.32 0.32, 3.94 -0.19, 3.63 -0.17 M1.15 0.96 C2.13 0.92, 4.98 1.33, 5.47 1.44 C5.96 1.55, 4.3 0.98, 4.09 1.64 C3.89 2.3, 4.27 4.84, 4.24 5.38 C4.21 5.92, 4.14 4.75, 3.92 4.87 C3.69 4.98, 3.3 5.88, 2.91 6.04 C2.51 6.2, 2.14 6.48, 1.56 5.82 C0.98 5.15, -0.31 2.98, -0.57 2.04 C-0.83 1.1, -0.7 0.72, 0.01 0.19 C0.72 -0.33, 3.33 -0.91, 3.7 -1.09 C4.07 -1.28, 2.46 -0.96, 2.22 -0.93" stroke="#1e1e1e" stroke-width="1" fill="none"></path></g><g transform="translate(475.0078125 297.44317884594204) rotate(0 36.6767578125 8.347555555555573)"><text x="0" y="0" font-family="Arial, Segoe UI Emoji" font-size="13.91259259259259px" fill="#1e1e1e" text-anchor="start" style="white-space: pre;" direction="ltr" dominant-baseline="text-before-edge">Portfolio</text></g><g transform="translate(474.5859375 247.79093579038647) rotate(0 20.3759765625 8.347555555555545)"><text x="0" y="0" font-family="Arial, Segoe UI Emoji" font-size="13.91259259259259px" fill="#1e1e1e" text-anchor="start" style="white-space: pre;" direction="ltr" dominant-baseline="text-before-edge">Blogs</text></g><g transform="translate(443.6513671875 228.79484204038647) rotate(0 52.9775390625 8.347555555555545)"><text x="0" y="0" font-family="Arial, Segoe UI Emoji" font-size="13.91259259259259px" fill="#1e1e1e" text-anchor="start" style="white-space: pre;" direction="ltr" dominant-baseline="text-before-edge">Documentation</text></g><g transform="translate(318.6279296875 55.91593579038647) rotate(0 77.4287109375 16.695111111111117)"><text x="0" y="0" font-family="Arial, Segoe UI Emoji" font-size="13.91259259259259px" fill="#1e1e1e" text-anchor="start" style="white-space: pre;" direction="ltr" dominant-baseline="text-before-edge">E-Commerce Websites</text><text x="0" y="16.695111111111107" font-family="Arial, Segoe UI Emoji" font-size="13.91259259259259px" fill="#1e1e1e" text-anchor="start" style="white-space: pre;" direction="ltr" dominant-baseline="text-before-edge"></text></g><g transform="translate(460.3466796875 275.00187329038647) rotate(0 52.9775390625 8.347555555555545)"><text x="0" y="0" font-family="Arial, Segoe UI Emoji" font-size="13.91259259259259px" fill="#1e1e1e" text-anchor="start" style="white-space: pre;" direction="ltr" dominant-baseline="text-before-edge">Landing Pages</text></g><g stroke-linecap="round" transform="translate(446.119140625 279.11310072094204) rotate(0 2.751953125 2.806640625)"><path d="M1.69 1.04 C1.96 0.89, 2.41 -0.04, 2.96 -0.12 C3.52 -0.19, 4.49 0.04, 5.03 0.6 C5.56 1.16, 6.37 2.65, 6.15 3.22 C5.92 3.79, 4.24 3.67, 3.69 4 C3.14 4.34, 3.28 5.08, 2.85 5.24 C2.42 5.4, 1.5 5.42, 1.1 4.98 C0.7 4.54, 0.69 3.09, 0.43 2.61 C0.18 2.12, -0.81 2.38, -0.41 2.08 C-0.01 1.78, 2.49 1.28, 2.84 0.82 C3.18 0.36, 1.79 -0.56, 1.64 -0.66 M1.03 -0.08 C1.85 -0.14, 4.41 0.14, 5.36 0.31 C6.32 0.48, 6.54 0.22, 6.77 0.93 C6.99 1.65, 7.02 4.1, 6.7 4.6 C6.38 5.1, 5.76 3.59, 4.86 3.95 C3.96 4.3, 1.9 6.7, 1.27 6.74 C0.65 6.79, 1.09 4.99, 1.09 4.2 C1.09 3.4, 1.25 2.69, 1.28 1.98 C1.3 1.26, 1.16 0.48, 1.26 -0.07 C1.36 -0.62, 1.64 -1.33, 1.88 -1.34 C2.12 -1.34, 2.75 -0.45, 2.71 -0.12" stroke="none" stroke-width="0" fill="#1e1e1e"></path><path d="M4.19 0.52 C4.8 0.61, 5.04 0.65, 5.22 1.08 C5.4 1.52, 5.47 2.6, 5.28 3.14 C5.1 3.67, 4.47 3.75, 4.1 4.3 C3.74 4.84, 3.48 6.25, 3.07 6.42 C2.66 6.6, 2.23 6.02, 1.65 5.34 C1.07 4.66, -0.34 3, -0.42 2.32 C-0.49 1.64, 0.82 1.71, 1.18 1.27 C1.54 0.84, 1.16 -0.06, 1.74 -0.28 C2.32 -0.49, 4.28 -0.13, 4.65 0 C5.02 0.12, 3.9 0.37, 3.96 0.45 M0.55 1.05 C0.63 0.65, 1.22 0.78, 1.94 0.63 C2.65 0.48, 4.04 -0.13, 4.83 0.15 C5.63 0.43, 6.6 1.8, 6.71 2.31 C6.82 2.82, 5.82 2.65, 5.47 3.22 C5.12 3.79, 5.5 5.31, 4.61 5.74 C3.72 6.17, 0.86 6.33, 0.14 5.79 C-0.59 5.25, 0.27 3.12, 0.25 2.49 C0.24 1.86, -0.13 2.4, 0.04 2.03 C0.2 1.66, 1.16 0.34, 1.25 0.25 C1.33 0.16, 0.64 1.67, 0.55 1.48" stroke="#1e1e1e" stroke-width="1" fill="none"></path></g><g stroke-linecap="round" transform="translate(274.37158203125 98.87492016538647) rotate(0 2.751953125 2.806640625)"><path d="M1.52 0.04 C1.87 -0.05, 2.73 0.29, 3.36 0.52 C3.99 0.76, 5.09 1.04, 5.3 1.44 C5.5 1.84, 4.7 2.31, 4.58 2.92 C4.46 3.53, 4.98 4.73, 4.59 5.1 C4.2 5.47, 2.82 5.3, 2.23 5.15 C1.65 5.01, 1.4 4.73, 1.08 4.25 C0.76 3.77, 0.54 2.95, 0.32 2.28 C0.11 1.62, -0.73 0.56, -0.21 0.28 C0.3 0, 3.02 0.8, 3.4 0.62 C3.79 0.43, 2.33 -0.93, 2.09 -0.84 M3.03 1.12 C3.55 0.96, 3.81 0.57, 4.05 0.76 C4.3 0.94, 4.32 1.31, 4.48 2.23 C4.64 3.16, 5.52 5.65, 5.02 6.31 C4.53 6.96, 2.25 6.41, 1.51 6.15 C0.78 5.88, 0.98 5.41, 0.62 4.71 C0.27 4.02, -0.64 2.29, -0.62 1.96 C-0.59 1.63, 0.26 2.98, 0.76 2.72 C1.26 2.46, 1.91 0.91, 2.4 0.39 C2.89 -0.14, 3.65 -0.63, 3.67 -0.42 C3.7 -0.2, 2.3 1.4, 2.55 1.69" stroke="none" stroke-width="0" fill="#1e1e1e"></path><path d="M1.93 -0.68 C2.57 -1.04, 3.36 -1, 3.79 -0.59 C4.22 -0.18, 4.27 1.02, 4.48 1.78 C4.7 2.55, 5.12 3.63, 5.08 4.01 C5.03 4.39, 4.46 3.84, 4.21 4.04 C3.97 4.25, 4.1 5.02, 3.6 5.26 C3.1 5.49, 1.76 5.71, 1.2 5.43 C0.63 5.15, 0.4 4.08, 0.22 3.58 C0.04 3.08, -0.18 2.93, 0.11 2.44 C0.39 1.96, 1.75 1.15, 1.93 0.66 C2.11 0.17, 1.22 -0.59, 1.18 -0.48 M0.23 -1.28 C0.56 -1.44, 2.14 -0.13, 2.99 0.44 C3.84 1, 5.15 1.64, 5.33 2.13 C5.5 2.61, 4.31 3.07, 4.04 3.35 C3.78 3.63, 3.94 3.39, 3.74 3.81 C3.54 4.22, 3.4 5.67, 2.83 5.85 C2.26 6.04, 0.89 5.27, 0.3 4.91 C-0.3 4.55, -0.95 4.15, -0.75 3.69 C-0.55 3.24, 0.99 2.91, 1.47 2.16 C1.95 1.42, 2.23 -0.5, 2.13 -0.77 C2.04 -1.04, 0.72 0.3, 0.9 0.55" stroke="#1e1e1e" stroke-width="1" fill="none"></path></g><g transform="translate(287.27099609375 93.1504114848309) rotate(0 40.751953125 8.347555555555545)"><text x="0" y="0" font-family="Arial, Segoe UI Emoji" font-size="13.91259259259259px" fill="#1e1e1e" text-anchor="start" style="white-space: pre;" direction="ltr" dominant-baseline="text-before-edge">Dashboards</text></g><g stroke-linecap="round" transform="translate(125.27880859375 37.05841322094204) rotate(0 2.751953125 2.806640625)"><path d="M0.91 1.06 C1.45 0.58, 2.21 -0.32, 3 -0.31 C3.8 -0.3, 5.39 0.58, 5.68 1.14 C5.96 1.69, 4.86 2.31, 4.7 3.04 C4.53 3.77, 4.83 5.2, 4.69 5.53 C4.55 5.86, 4.57 4.95, 3.85 5.02 C3.14 5.08, 0.91 6.04, 0.41 5.91 C-0.09 5.77, 0.89 5.07, 0.86 4.2 C0.83 3.34, -0.08 1.42, 0.21 0.72 C0.51 0.03, 2.42 0.17, 2.63 0.05 C2.83 -0.08, 1.49 -0.13, 1.45 -0.01 M4.2 -0.98 C4.63 -1.34, 4.74 -0.89, 4.74 -0.04 C4.74 0.8, 4.06 3.23, 4.2 4.08 C4.34 4.93, 5.53 5.04, 5.58 5.06 C5.64 5.09, 5.42 4.09, 4.54 4.21 C3.67 4.33, 1 5.95, 0.34 5.77 C-0.32 5.58, 0.83 3.96, 0.58 3.11 C0.33 2.25, -1.14 1.25, -1.16 0.64 C-1.17 0.02, -0.32 -0.59, 0.48 -0.59 C1.27 -0.58, 3.23 0.64, 3.62 0.68 C4.01 0.72, 2.83 -0.23, 2.8 -0.34" stroke="none" stroke-width="0" fill="#1e1e1e"></path><path d="M2.05 -0.58 C2.52 -0.84, 3.23 -0.15, 3.71 0.36 C4.18 0.87, 4.61 1.85, 4.89 2.48 C5.16 3.11, 5.46 3.58, 5.37 4.15 C5.29 4.73, 5.09 5.57, 4.4 5.94 C3.71 6.31, 1.71 6.76, 1.21 6.38 C0.72 5.99, 1.75 4.21, 1.41 3.65 C1.07 3.08, -0.85 3.63, -0.85 2.99 C-0.84 2.34, 0.8 0.19, 1.46 -0.2 C2.11 -0.6, 2.92 0.63, 3.09 0.62 C3.25 0.6, 2.43 -0.27, 2.44 -0.29 M2.24 -0.31 C2.57 -0.16, 2.65 0.12, 3.35 0.42 C4.06 0.72, 6.01 0.92, 6.47 1.48 C6.94 2.05, 6.59 3.29, 6.15 3.81 C5.72 4.34, 4.72 4.47, 3.85 4.63 C2.97 4.79, 1.49 4.88, 0.92 4.76 C0.34 4.64, 0.6 4.44, 0.39 3.9 C0.17 3.36, -0.49 2.07, -0.38 1.53 C-0.28 0.99, 0.62 1.02, 1.02 0.64 C1.42 0.26, 1.94 -0.56, 2.02 -0.76 C2.11 -0.96, 1.45 -0.67, 1.54 -0.59" stroke="#1e1e1e" stroke-width="1" fill="none"></path></g><g transform="translate(138.29931640625 31.45499829038647) rotate(0 20.3759765625 8.347555555555545)"><text x="0" y="0" font-family="Arial, Segoe UI Emoji" font-size="13.91259259259259px" fill="#1e1e1e" text-anchor="start" style="white-space: pre;" direction="ltr" dominant-baseline="text-before-edge">Games</text></g></svg>